<?xml version="1.0" encoding="utf-8"?>
<!-- Generator: Adobe Illustrator 16.0.0, SVG Export Plug-In . SVG Version: 6.00 Build 0)  -->
<!DOCTYPE svg PUBLIC "-//W3C//DTD SVG 1.1//EN" "http://www.w3.org/Graphics/SVG/1.1/DTD/svg11.dtd">
<svg version="1.1" id="Layer_1" xmlns="http://www.w3.org/2000/svg" xmlns:xlink="http://www.w3.org/1999/xlink" x="0px" y="0px"
	 width="150px" height="100px" viewBox="0 0 150 100" enable-background="new 0 0 150 100" xml:space="preserve">
<g>
	<circle fill="#010101" cx="13.403" cy="32.272" r="12.627"/>
	<path fill="#010101" d="M149.224,32.272c0,0.886-5.652,1.604-12.626,1.604c-6.971,0-12.628-0.718-12.628-1.604
		s5.657-1.604,12.628-1.604C143.571,30.668,149.224,31.386,149.224,32.272z"/>
	
		<path fill="none" stroke="#010101" stroke-width="5.0508" stroke-linecap="round" stroke-linejoin="round" stroke-miterlimit="10" d="
		M61.169,26.817v19.729c0,0,1.159,8.102,8.735,10.891c0,0,5.206,8.893,10.467,0c0,0,7.474-3.633,8.578-10.997v-9.1"/>
	
		<path fill="none" stroke="#010101" stroke-width="5.0508" stroke-linecap="round" stroke-linejoin="round" stroke-miterlimit="10" d="
		M47.812,71.73c0,0,7.576,13.473,28.832,12.943c0,0,17.47,0.211,24.622-10.734"/>
	<path fill="none" stroke="#010101" stroke-width="5.0508" stroke-linecap="round" stroke-miterlimit="10" d="M99.51,65.926
		c0,0-0.262,10.678,10.156,9.943"/>
</g>
</svg>
