<?xml version="1.0" encoding="utf-8"?>
<!-- Generator: Adobe Illustrator 16.0.0, SVG Export Plug-In . SVG Version: 6.00 Build 0)  -->
<!DOCTYPE svg PUBLIC "-//W3C//DTD SVG 1.1//EN" "http://www.w3.org/Graphics/SVG/1.1/DTD/svg11.dtd">
<svg version="1.1" id="Layer_1" xmlns="http://www.w3.org/2000/svg" xmlns:xlink="http://www.w3.org/1999/xlink" x="0px" y="0px"
	 width="200px" height="50px" viewBox="0 0 200 50" enable-background="new 0 0 200 50" xml:space="preserve">
<g>
	<path fill="none" stroke="#010101" stroke-width="1.3917" stroke-miterlimit="10" d="M5.49,1.697c-1.906,0-3.453,2.082-3.453,4.65
		v1.296v34.715v1.297c0,2.57,1.547,4.648,3.453,4.648s3.452-2.078,3.452-4.648v-2.336V8.684V6.347
		C8.942,3.778,7.396,1.697,5.49,1.697z"/>
	<path fill="none" stroke="#010101" stroke-width="1.3917" stroke-miterlimit="10" d="M8.942,7.376h83.066
		c5.898,2.479,10.292,7.85,11.41,14.364c2.527,0.003,4.574,1.461,4.574,3.259c0,1.799-2.047,3.26-4.574,3.262
		c-1.117,6.512-5.511,11.887-11.41,14.365H8.942"/>
</g>
</svg>
