<?xml version="1.0" encoding="utf-8"?>
<!-- Generator: Adobe Illustrator 16.0.0, SVG Export Plug-In . SVG Version: 6.00 Build 0)  -->
<!DOCTYPE svg PUBLIC "-//W3C//DTD SVG 1.1//EN" "http://www.w3.org/Graphics/SVG/1.1/DTD/svg11.dtd">
<svg version="1.1" id="Layer_1" xmlns="http://www.w3.org/2000/svg" xmlns:xlink="http://www.w3.org/1999/xlink" x="0px" y="0px"
	 width="70px" height="70px" viewBox="0 0 70 70" enable-background="new 0 0 70 70" xml:space="preserve">
<g id="Layer_1_1_" display="none">
	
		<image display="inline" overflow="visible" enable-background="new    " width="31" height="31" xlink:href="64C808A9.jpeg"  transform="matrix(0.9999 0 0 0.9999 20 19)">
	</image>
</g>
<rect display="none" fill="#FAA719" width="70" height="70"/>
<path fill="#F4E2E2" d="M36.042,26.25c0,0,5.708-0.958,3.75,1.958c0,0-1.417,2.917-2.792,1.25C37,29.458,34.292,27.333,36.042,26.25
	z"/>
<path fill="#F4E2E2" d="M23.125,29.042c0,0,2.625-2.762,1.708,0.932c0,0-0.802,2.671-1.708,2.068
	C23.125,32.042,22.727,29.417,23.125,29.042z"/>
<path fill="#F4E2E2" d="M26.375,29.5c0,0,6.542-3.401,5.625,0.84c0,0-0.666,4.035-3.333,4.66C28.667,35,26.084,33.334,26.375,29.5z"
	/>
</svg>
