<?xml version="1.0" encoding="utf-8"?>
<!-- Generator: Adobe Illustrator 16.0.0, SVG Export Plug-In . SVG Version: 6.00 Build 0)  -->
<!DOCTYPE svg PUBLIC "-//W3C//DTD SVG 1.1//EN" "http://www.w3.org/Graphics/SVG/1.1/DTD/svg11.dtd">
<svg version="1.1" id="Layer_1" xmlns="http://www.w3.org/2000/svg" xmlns:xlink="http://www.w3.org/1999/xlink" x="0px" y="0px"
	 width="100px" height="50px" viewBox="0 0 100 50" enable-background="new 0 0 100 50" xml:space="preserve">
<g>
	<path fill="none" stroke="#424243" stroke-miterlimit="10" d="M4.31,6.484c-1.604,0-2.904,1.741-2.904,3.892v1.084v29.048v1.085
		c0,2.15,1.301,3.891,2.904,3.891c1.602,0,2.902-1.74,2.902-3.891V39.64V12.33v-1.954C7.212,8.226,5.912,6.484,4.31,6.484z"/>
	<path fill="none" stroke="#424243" stroke-miterlimit="10" d="M94.525,23.256c-0.939-5.449-6.208-9.945-11.168-12.021L7.445,11.236
		v29.497h75.913c4.96-2.075,10.229-6.572,11.168-12.021c2.125-0.003,3.847-1.225,3.847-2.729
		C98.372,24.479,96.65,23.257,94.525,23.256z"/>
</g>
<text transform="matrix(1 0 0 1 28.9995 32.1338)" fill="#59595A" font-family="'NotoSansKR-Bold-KSCpc-EUC-H'" font-size="17">NEXT</text>
</svg>
