<?xml version="1.0" encoding="utf-8"?>
<!-- Generator: Adobe Illustrator 16.0.0, SVG Export Plug-In . SVG Version: 6.00 Build 0)  -->
<!DOCTYPE svg PUBLIC "-//W3C//DTD SVG 1.1//EN" "http://www.w3.org/Graphics/SVG/1.1/DTD/svg11.dtd">
<svg version="1.1" id="Layer_1" xmlns="http://www.w3.org/2000/svg" xmlns:xlink="http://www.w3.org/1999/xlink" x="0px" y="0px"
	 width="200px" height="100px" viewBox="0 0 200 100" enable-background="new 0 0 200 100" xml:space="preserve">
<polygon fill="#010101" points="4.635,8.58 51.739,8.58 24.954,46.448 51.739,46.448 51.739,59.147 1.864,59.147 29.341,19.663 
	4.404,19.663 4.404,8.58 "/>
<rect x="75.368" y="8.58" fill="#010101" width="12.776" height="50.567"/>
<rect x="185.276" y="8.58" fill="#010101" width="12.776" height="50.567"/>
<path fill="#010101" d="M112.158,8.58h31.71c0,0,14.778,1,18.78,17.317v33.25h-12.315V26.359c0,0-1.847-6.62-8.62-6.465h-17.394
	v39.253h-12.161V8.58z"/>
<path fill="#010101" d="M22.414,70.923h-8.312c0,0-7.562,2.367-8.428,8.197c0,0-3.925-0.23-3.694,3.06c0,0,0.173,2.251,3.81,2.771
	c0,0,1.616,6.004,8.37,8.197h8.254v-5.195h-7.851c0,0-4.214-2.482-4.214-5.917c0,0,0-4.936,4.156-6.32h7.908V70.923z"/>
<path fill="#010101" d="M39.501,70.923c-6.153,0-11.141,4.987-11.141,11.142c0,6.152,4.988,11.141,11.141,11.141
	s11.141-4.988,11.141-11.141C50.642,75.91,45.654,70.923,39.501,70.923z M39.501,88.681c-3.654,0-6.617-2.962-6.617-6.616
	c0-3.655,2.962-6.617,6.617-6.617s6.617,2.962,6.617,6.617C46.118,85.719,43.155,88.681,39.501,88.681z"/>
<path fill="#010101" d="M124.319,70.923c-6.153,0-11.142,4.987-11.142,11.142c0,6.152,4.988,11.141,11.142,11.141
	c6.151,0,11.141-4.988,11.141-11.141C135.46,75.91,130.471,70.923,124.319,70.923z M124.319,88.681
	c-3.655,0-6.617-2.962-6.617-6.616c0-3.655,2.962-6.617,6.617-6.617c3.653,0,6.616,2.962,6.616,6.617
	C130.936,85.719,127.973,88.681,124.319,88.681z"/>
<path fill="#010101" d="M56.587,93.205V70.923h15.009c0,0,7.793,2.021,7.793,7.793v14.489h-5.831V78.773c0,0-0.52-2.771-3.406-2.771
	h-8.254v17.202H56.587z"/>
<path fill="#010101" d="M99.458,70.923H84.834v22.282h14.624c4.926,0,7.773-7.428,7.773-7.428v-5.233
	C107.231,72.463,99.458,70.923,99.458,70.923z M102.652,84.604c0,0-0.866,3.232-4.099,3.982h-8.89V75.945h9.524
	c0,0,3.29,0.75,3.464,3.983V84.604z"/>
<path fill="#010101" d="M162.186,70.923h-20.742v22.282h5.311V76.003h6.119v17.202h5.465V76.003h2.404
	c2.887,0,3.406,2.771,3.406,2.771v14.432h5.83V78.716C169.979,72.943,162.186,70.923,162.186,70.923z"/>
<path fill="#010101" d="M194.955,70.923v4.965H181.62c0,0-3.925,1.501,0,3.925h10.333c0,0,5.541,1.039,5.772,6.408
	c0,0-0.347,6.407-6.062,6.984h-16.336v-5.253h15.009c0,0,1.674-0.231,1.847-1.674c0,0-0.404-2.136-1.963-1.963h-10.448
	c0,0-4.733-2.482-4.964-6.292v-1.731c0,0,0.75-5.195,5.83-5.369H194.955z"/>
</svg>
